
<svg version="1.0" xmlns="http://www.w3.org/2000/svg"
 width="100.000000pt" height="100.000000pt" viewBox="0 0 100.000000 100.000000"
 preserveAspectRatio="xMidYMid meet">
<g transform="translate(0.000000,100.000000) scale(0.100000,-0.100000)"
fill="#000000" stroke="none">
<path d="M425 960 c-128 -20 -251 -100 -318 -207 -49 -79 -69 -151 -69 -253 0
-136 41 -239 132 -330 207 -207 569 -168 723 77 49 79 69 151 69 253 0 136
-41 239 -132 330 -102 102 -260 153 -405 130z m55 -140 l0 -90 -47 1 c-27 1
-58 4 -70 7 l-22 7 25 50 c24 49 84 115 104 115 6 0 10 -36 10 -90z m95 58
c19 -18 45 -55 59 -83 29 -59 25 -63 -61 -64 l-53 -1 0 90 c0 54 4 90 10 90 6
0 26 -15 45 -32z m-249 -50 c-17 -35 -32 -65 -33 -67 -6 -10 -84 21 -81 32 4
12 124 97 138 97 4 0 -7 -28 -24 -62z m395 20 c35 -24 65 -48 67 -55 3 -11
-75 -42 -81 -32 -22 38 -62 129 -57 129 5 0 36 -19 71 -42z m-496 -127 c30
-12 49 -25 47 -33 -2 -7 -6 -46 -9 -86 -4 -43 -11 -76 -18 -78 -6 -3 -46 -4
-87 -2 l-75 3 13 63 c12 60 56 152 72 152 4 0 30 -9 57 -19z m647 -41 c15 -30
31 -79 36 -108 l9 -53 -86 3 -86 3 -7 76 c-4 41 -8 81 -10 88 -3 13 76 50 102
47 8 0 27 -26 42 -56z m-436 0 l44 0 0 -80 0 -80 -86 0 -87 0 6 75 c7 91 11
99 49 91 17 -3 50 -6 74 -6z m245 -25 c4 -16 7 -54 8 -82 l1 -53 -85 0 -85 0
0 80 0 79 58 4 c93 6 96 5 103 -28z m-419 -256 c4 -41 8 -81 10 -88 3 -13 -90
-54 -108 -47 -19 7 -62 106 -72 164 l-9 53 86 -3 86 -3 7 -76z m218 2 l0 -78
-72 -6 c-40 -3 -77 -2 -81 3 -5 4 -11 42 -14 84 l-6 76 87 0 86 0 0 -79z m207
3 c-3 -42 -9 -80 -14 -84 -4 -5 -41 -6 -80 -3 l-73 6 0 78 0 79 86 0 87 0 -6
-76z m221 24 c-11 -59 -54 -157 -72 -164 -18 -7 -111 34 -108 47 2 7 5 42 8
78 3 36 7 72 10 79 2 8 29 12 87 12 l84 0 -9 -52z m-428 -248 c0 -54 -4 -90
-10 -90 -20 0 -80 66 -104 115 -29 59 -25 63 62 64 l52 1 0 -90z m157 82 l22
-7 -25 -50 c-24 -49 -84 -115 -104 -115 -6 0 -10 36 -10 90 l0 90 48 -1 c26
-1 57 -4 69 -7z m-311 -88 c17 -35 27 -64 23 -64 -13 0 -133 85 -136 97 -4 11
39 31 67 32 9 0 28 -27 46 -65z m433 55 c18 -6 30 -16 28 -23 -3 -11 -123 -96
-136 -96 -12 0 53 129 65 129 6 1 25 -4 43 -10z"/>
</g>
</svg>
